<svg width="128" height="128" viewBox="0 0 128 128" xmlns="http://www.w3.org/2000/svg">
  <rect width="128" height="128" fill="none"/>
  <circle cx="64" cy="64" r="56" fill="none" stroke="#000" stroke-width="12"/>
  <g fill="#000" stroke="#fff" stroke-width="3">
    <circle cx="64" cy="64" r="30"/>
    <circle cx="64" cy="18" r="12"/>
    <circle cx="103" cy="33" r="12"/>
    <circle cx="103" cy="95" r="12"/>
    <circle cx="64" cy="110" r="12"/>
    <circle cx="25" cy="95" r="12"/>
    <circle cx="25" cy="33" r="12"/>
  </g>
  <text x="64" y="72" text-anchor="middle" font-family="Arial, Helvetica, sans-serif" font-size="28" font-weight="700" fill="#fff">ERP</text>

  <!-- Top gear icon -->
  <g transform="translate(64 18) scale(0.4) translate(-32 -32)">
    <circle cx="32" cy="32" r="12" fill="#fff"/>
    <path d="M32 0 L38 10 L48 14 L44 24 L52 32 L44 40 L48 50 L38 54 L32 64 L26 54 L16 50 L20 40 L12 32 L20 24 L16 14 L26 10 Z" fill="#fff" stroke="#000" stroke-width="4"/>
  </g>

  <!-- Top-right chart icon -->
  <g transform="translate(103 33) scale(0.35) translate(-32 -32)">
    <rect x="10" y="24" width="12" height="28" fill="#fff" rx="3"/>
    <rect x="24" y="18" width="12" height="34" fill="#fff" rx="3"/>
    <rect x="38" y="10" width="12" height="42" fill="#fff" rx="3"/>
    <path d="M8 44 L20 32 L28 40 L44 16" fill="none" stroke="#fff" stroke-width="6" stroke-linecap="round"/>
    <circle cx="44" cy="16" r="4" fill="#fff"/>
  </g>

  <!-- Bottom-right currency icon -->
  <g transform="translate(103 95) scale(0.35) translate(-32 -32)">
    <circle cx="32" cy="32" r="18" fill="#fff"/>
    <path d="M28 18 C28 14 32 12 36 12 C40 12 44 14 44 18 C44 22 40 24 36 24 C32 24 28 26 28 30 L28 38 C28 42 32 44 36 44 C40 44 44 42 44 38" fill="none" stroke="#000" stroke-width="6"/>
    <line x1="36" y1="12" x2="36" y2="52" stroke="#000" stroke-width="6"/>
  </g>

  <!-- Bottom truck icon -->
  <g transform="translate(64 110) scale(0.4) translate(-32 -32)">
    <rect x="6" y="20" width="44" height="16" rx="3" fill="#fff"/>
    <rect x="34" y="12" width="18" height="16" rx="3" fill="#fff"/>
    <circle cx="18" cy="44" r="6" fill="#fff"/>
    <circle cx="46" cy="44" r="6" fill="#fff"/>
  </g>

  <!-- Bottom-left user icon -->
  <g transform="translate(25 95) scale(0.35) translate(-32 -32)">
    <circle cx="32" cy="20" r="14" fill="#fff"/>
    <path d="M14 48 C14 36 20 28 32 28 C44 28 50 36 50 48 Z" fill="#fff"/>
  </g>

  <!-- Top-left clipboard icon -->
  <g transform="translate(25 33) scale(0.35) translate(-32 -32)">
    <rect x="16" y="10" width="32" height="44" rx="4" fill="#fff"/>
    <rect x="22" y="6" width="20" height="8" rx="2" fill="#fff"/>
    <path d="M22 24 L34 36 L50 18" fill="none" stroke="#000" stroke-width="6" stroke-linecap="round" stroke-linejoin="round"/>
  </g>
</svg>
